# AST/ASF file generated using VICON BodyLanguage
# -----------------------------------------------
:version 1.10
:name VICON
:units
  mass 1.0
  length 0.45
  angle deg
:documentation
   .ast/.asf automatically generated from VICON data using
   VICON BodyBuilder and BodyLanguage model FoxedUp or BRILLIANT.MOD
:root
   order TX TY TZ RX RY RZ
   axis XYZ
   position 0 0 0  
   orientation 0 0 0 
:bonedata
  begin
     id 1 
     name lhipjoint
     direction 0.646657 -0.683706 0.338203 
     length 2.4948 
     axis 0 0 0  XYZ
  end
  begin
     id 2 
     name lfemur
     direction 0.34202 -0.939693 0  
     length 6.79491  
     axis 0 0 20  XYZ
    dof rx ry rz
    limits (-160.0 20.0)
           (-70.0 70.0)
           (-60.0 70.0)
  end
  begin
     id 3 
     name ltibia
     direction 0.34202 -0.939693 0   
     length 7.56807   
     axis 0 0 20   XYZ
    dof rx
    limits (-10.0 170.0)
  end
  begin
     id 4 
     name lfoot
     direction 0.0679796 -0.186772 0.980048   
     length 2.53018   
     axis -90 7.62852e-016 20   XYZ
    dof rx rz
    limits (-45.0 90.0)
           (-70.0 20.0)
  end
  begin
     id 5 
     name ltoes
     direction 1.53625e-011 -4.21881e-011 1   
     length 1.26912   
     axis -90 7.62852e-016 20   XYZ
    dof rx
    limits (-90.0 20.0)
  end
  begin
     id 6 
     name rhipjoint
     direction -0.618868 -0.704065 0.348274   
     length 2.42265  
     axis 0 0 0  XYZ 
  end
  begin
     id 7 
     name rfemur
     direction -0.34202 -0.939693 0   
     length 6.73814   
     axis 0 0 -20   XYZ
    dof rx ry rz
    limits (-160.0 20.0)
           (-70.0 70.0)
           (-70.0 60.0)
  end
  begin
     id 8 
     name rtibia
     direction -0.34202 -0.939693 0   
     length 7.66799   
     axis 0 0 -20   XYZ
    dof rx
    limits (-10.0 170.0)
 end
 begin
     id 9 
     name rfoot
     direction -0.0727352 -0.199838 0.977125   
     length 2.57224  
     axis -90 -7.62852e-016 -20   XYZ
    dof rx rz
    limits (-45.0 90.0)
           (-20.0 70.0)
  end
  begin
     id 10 
     name rtoes
     direction -1.53501e-011 -4.21858e-011 1   
     length 1.28858   
     axis -90 -7.62852e-016 -20   XYZ
    dof rx
    limits (-90.0 20.0)
  end
  begin
     id 11 
     name lowerback
     direction -0.0172471 0.995767 -0.0902851   
     length 2.20206   
     axis 0 0 0   XYZ
    dof rx ry rz
    limits (-20.0 45.0)
           (-30.0 30.0)
           (-30.0 30.0)
  end
  begin
     id 12 
     name upperback
     direction -0.000110737 0.999714 0.0239043   
     length 2.19523   
     axis 0 0 0   XYZ
    dof rx ry rz
    limits (-20.0 45.0)
           (-30.0 30.0)
           (-30.0 30.0)
  end
  begin
     id 13 
     name thorax
     direction 0.00704869 0.997783 0.0661741   
     length 2.21977   
     axis 0 0 0   XYZ
    dof rx ry rz
    limits (-20.0 45.0)
           (-30.0 30.0)
           (-30.0 30.0)
  end
  begin
     id 14 
     name lowerneck
     direction -0.00407501 0.995527 0.0943846   
     length 1.83142   
     axis 0 0 0   XYZ
    dof rx ry rz
    limits (-20.0 45.0)
           (-30.0 30.0)
           (-30.0 30.0)
  end
  begin
     id 15 
     name upperneck
     direction 0.0640586 0.986486 -0.150807   
     length 1.84616   
     axis 0 0 0   XYZ
    dof rx ry rz
    limits (-20.0 45.0)
           (-30.0 30.0)
           (-30.0 30.0)
  end
  begin
     id 16
     name head
     direction 0.0188017 0.99791 -0.0618239  
     length 1.85932  
     axis 0 0 0   XYZ
    dof rx ry rz
    limits (-20.0 45.0)
           (-30.0 30.0)
           (-30.0 30.0)
  end
  begin
     id 17 
     name lclavicle
     direction 0.976074 0.206905 0.066852  
     length 3.81043  
     axis 0 0 0   XYZ
    dof ry rz
    limits (-20.0 10.0)
           (0.0 20.0)
  end
  begin
     id 18 
     name lhumerus
     direction 1 -4.48971e-011 1.86916e-027   
     length 5.37587   
     axis 180 -30 -90   XYZ
    dof rx ry rz
    limits (-60.0 90.0)
           (-90.0 90.0)
           (-90.0 90.0)
  end
  begin
     id 19
     name lradius
     direction 1 -4.48968e-011 1.69187e-027   
     length 3.35977   
     axis 180 -30 -90   XYZ
    dof rx
    limits (-10.0 170.0)
  end
  begin
     id 20
     name lwrist
     direction 1 -4.48968e-011 5.8978e-027   
     length 1.67988   
     axis -3.27506e-015 90 90   XYZ
    dof ry
    limits (-180.0 0.0)
 end
  begin
     id 21 
     name lhand
     direction 1 -4.49028e-011 1.18071e-026   
     length 0.561859   
     axis -7.52654e-015 90 90   XYZ
    dof rx rz
    limits (-90.0 90.0)
           (-45.0 45.0)
  end
  begin
     id 22 
     name lfingers
     direction 1 -4.48927e-011 2.35758e-026   
     length 0.452985   
     axis -1.50534e-014 90 90   XYZ
    dof rx
    limits (0.0 90.0)
  end
  begin
     id 23
     name lthumb
     direction 0.707107 -6.34898e-011 0.707107   
     length 0.650399   
     axis -90 45 5.69224e-014   XYZ
    dof rx rz
    limits (-45.0 45.0)
           (-45.0 45.0)
  end
  begin
     id 24 
     name rclavicle
     direction -0.988403 0.151789 0.00439714   
     length 3.6942  
     axis 0 0 0   XYZ 
    dof ry rz
    limits (-10.0 20.0)
           (-20.0 0.0)
  end
  begin
     id 25 
     name rhumerus
     direction -1 -4.48978e-011 1.62495e-027  
     length 5.22819   
     axis 180 30 90   XYZ
    dof rx ry rz
    limits (-90.0 60.0)
           (-90.0 90.0)
           (-90.0 90.0)
  end
  begin
     id 26 
     name rradius
     direction -1 -4.48961e-011 3.47796e-027   
     length 3.40764   
     axis 180 30 90   XYZ
    dof rx
    limits (-10.0 170.0)
  end
  begin
     id 27 
     name rwrist
     direction -1 -4.48949e-011 5.89602e-027   
     length 1.70382   
     axis -3.27506e-015 -90 -90   XYZ
    dof ry
    limits (-180.0 0.0)
  end
  begin
     id 28
     name rhand
     direction -1 -4.48977e-011 1.17973e-026   
     length 0.583255   
     axis -7.52654e-015 -90 -90   XYZ
    dof rx rz
    limits (-90.0 90.0)
           (-45.0 45.0)
  end
  begin
     id 29
     name rfingers
     direction -1 -4.49099e-011 2.36408e-026   
     length 0.470235   
     axis -1.50534e-014 -90 -90   XYZ
    dof rx
    limits (0.0 90.0)
  end
  begin
     id 30
     name rthumb
     direction -0.707107 -6.35011e-011 0.707107   
     length 0.675167   
     axis -90 -45 -5.69224e-014   XYZ
    dof rx rz
    limits (-45.0 45.0)
           (-45.0 45.0)
  end
:hierarchy
  begin
    root lhipjoint rhipjoint lowerback
    lhipjoint lfemur
    lfemur ltibia
    ltibia lfoot
    lfoot ltoes
    rhipjoint rfemur
    rfemur rtibia
    rtibia rfoot
    rfoot rtoes
    lowerback upperback
    upperback thorax
    thorax lowerneck lclavicle rclavicle
    lowerneck upperneck
    upperneck head
    lclavicle lhumerus
    lhumerus lradius
    lradius lwrist
    lwrist lhand lthumb
    lhand lfingers
    rclavicle rhumerus
    rhumerus rradius
    rradius rwrist
    rwrist rhand rthumb
    rhand rfingers
  end

#!OML:ASF G:\JayActor3\Patient Classification 1\Patient 1\Session 2\male.ASF
:FULLY-SPECIFIED
:DEGREES
2184
root 0.0180747 17.0165 -5.27039 2493.52 87.6963 -1108.47
lowerback -2.1434 0.848869 0.0597766
upperback 5.30557 1.25043 -0.524035
thorax 6.73064 0.672584 -0.475848
lowerneck -9.31522 0.922112 2.1942
upperneck 22.9112 0.858016 2.16793
head 8.6734 0.988956 0.474124
rclavicle -5.96354e-016 2.38542e-015
rhumerus -26.3204 -7.94007 -85.6303
rradius 18.7505
rwrist 6.18011
rhand -21.9664 6.54624
rfingers 7.12502
rthumb 4.44117 -23.3872
lclavicle -5.96354e-016 2.38542e-015
lhumerus -26.7785 12.0608 82.7443
lradius 19.2944
lwrist 2.44282
lhand -18.0602 16.1651
lfingers 7.12502
lthumb 8.21227 45.9855
rfemur -4.06504 -3.1142 21.0877
rtibia 53.9548
rfoot -2.37931 -9.20639
rtoes 22.71
lfemur -15.8593 6.74948 -23.9
ltibia 23.6808
lfoot -8.98291 6.99235
ltoes 3.22454
2185
root 0.101105 17.0197 -5.28987 2496.12 87.6802 -1105.8
lowerback -2.11979 0.800357 -0.0747883
upperback 5.32773 1.19755 -0.582581
thorax 6.7386 0.641664 -0.465895
lowerneck -9.26035 0.891023 2.15876
upperneck 22.8295 0.837237 2.09244
head 8.63511 0.965538 0.451069
rclavicle -2.48481e-016 5.1684e-015
rhumerus -26.5229 -8.17128 -85.4421
rradius 18.6293
rwrist 6.35947
rhand -21.9902 6.61052
rfingers 7.12502
rthumb 4.41824 -23.3234
lclavicle -2.48481e-016 5.1684e-015
lhumerus -26.4912 11.3748 82.9816
lradius 19.7532
lwrist 2.94341
lhand -18.1401 16.152
lfingers 7.12502
lthumb 8.13509 45.9754
rfemur -4.84221 -3.13102 20.8432
rtibia 55.3682
rfoot -1.26982 -9.80643
rtoes 23.7062
lfemur -15.3146 6.81377 -24.0404
ltibia 23.4209
lfoot -9.19527 6.97646
ltoes 3.30276
2186
root 0.182741 17.0221 -5.30907 2498.38 87.6579 -1103.48
lowerback -2.10197 0.753489 -0.190592
upperback 5.35297 1.14585 -0.639051
thorax 6.75371 0.612265 -0.464056
lowerneck -9.20466 0.84868 2.12061
upperneck 22.7627 0.80352 2.00888
head 8.60177 0.935545 0.424701
rclavicle -6.36111e-015 6.75868e-015
rhumerus -26.7159 -8.35359 -85.2808
rradius 18.5542
rwrist 6.46079
rhand -21.9916 6.64231
rfingers 7.12502
rthumb 4.41692 -23.2916
lclavicle -6.36111e-015 6.75868e-015
lhumerus -26.1656 10.7352 83.1941
lradius 20.1755
lwrist 3.36731
lhand -18.219 16.1231
lfingers 7.12502
lthumb 8.05895 45.9494
rfemur -5.61994 -3.14107 20.6241
rtibia 56.7256
rfoot -0.254765 -10.3826
rtoes 24.3803
lfemur -14.7891 6.86654 -24.167
ltibia 23.1828
lfoot -9.41075 6.96995
ltoes 3.34663
2187
root 0.262874 17.0233 -5.32797 2500.44 87.6302 -1101.36
lowerback -2.0872 0.708319 -0.296504
upperback 5.38162 1.09591 -0.69303
thorax 6.7745 0.584205 -0.464948
lowerneck -9.14867 0.797972 2.08087
upperneck 22.7101 0.761746 1.91219
head 8.57323 0.900798 0.393622
rclavicle -2.98177e-016 2.38542e-015
rhumerus -26.8975 -8.48882 -85.144
rradius 18.5237
rwrist 6.49785
rhand -21.9701 6.64628
rfingers 7.12502
rthumb 4.43765 -23.2872
lclavicle -2.98177e-016 2.38542e-015
lhumerus -25.7983 10.1377 83.3869
lradius 20.5565
lwrist 3.72186
lhand -18.2953 16.0769
lfingers 7.12502
lthumb 7.98536 45.9061
rfemur -6.3961 -3.14299 20.425
rtibia 58.0221
rfoot 0.560705 -10.8854
rtoes 24.6691
lfemur -14.2843 6.91305 -24.2859
ltibia 22.9703
lfoot -9.63126 6.97011
ltoes 3.34262
2188
root 0.341569 17.0235 -5.34636 2502.26 87.5992 -1099.47
lowerback -2.07137 0.664135 -0.395015
upperback 5.41121 1.04675 -0.743748
thorax 6.79588 0.556827 -0.466542
lowerneck -9.09236 0.740303 2.03852
upperneck 22.6776 0.713488 1.80602
head 8.55151 0.862512 0.359454
rclavicle 3.97569e-016 -3.97569e-016
rhumerus -27.075 -8.56625 -85.0371
rradius 18.546
rwrist 6.43798
rhand -21.9361 6.61234
rfingers 7.12502
rthumb 4.47046 -23.3205
lclavicle 3.97569e-016 -3.97569e-016
lhumerus -25.3986 9.56644 83.5635
lradius 20.9043
lwrist 4.02781
lhand -18.3701 16.0418
lfingers 7.12502
lthumb 7.91317 45.8737
rfemur -7.16453 -3.13727 20.2492
rtibia 59.2473
rfoot 1.07631 -11.2632
rtoes 24.6037
lfemur -13.7984 6.95354 -24.3953
ltibia 22.785
lfoot -9.85946 6.97435
ltoes 3.31571
2189
root 0.418711 17.0226 -5.36415 2503.9 87.566 -1097.77
lowerback -2.05334 0.619956 -0.489724
upperback 5.44139 0.997171 -0.790132
thorax 6.8167 0.529303 -0.465817
lowerneck -9.04147 0.678037 1.98792
upperneck 22.6684 0.662013 1.69408
head 8.53863 0.82214 0.324758
rclavicle -1.42131e-014 1.51076e-014
rhumerus -27.2472 -8.6068 -84.9479
rradius 18.6087
rwrist 6.33954
rhand -21.884 6.58087
rfingers 7.12502
rthumb 4.52081 -23.3509
lclavicle -1.42131e-014 1.51076e-014
lhumerus -24.9653 9.01862 83.7281
lradius 21.2189
lwrist 4.29231
lhand -18.4465 15.9988
lfingers 7.12502
lthumb 7.83937 45.8335
rfemur -7.92642 -3.12314 20.0959
rtibia 60.3904
rfoot 1.23832 -11.4614
rtoes 24.2505
lfemur -13.3345 6.98776 -24.4972
ltibia 22.6273
lfoot -10.0912 6.9834
ltoes 3.2382
2190
root 0.494466 17.0207 -5.3812 2505.38 87.5324 -1096.22
lowerback -2.02818 0.576572 -0.584191
upperback 5.47129 0.948371 -0.832587
thorax 6.83313 0.502064 -0.461161
lowerneck -8.99677 0.611613 1.92754
upperneck 22.6849 0.607011 1.58239
head 8.53556 0.780076 0.291786
rclavicle -3.67752e-015 6.75868e-015
rhumerus -27.4185 -8.59294 -84.8853
rradius 18.7213
rwrist 6.15368
rhand -21.8364 6.5415
rfingers 7.12502
rthumb 4.56678 -23.3893
lclavicle -3.67752e-015 6.75868e-015
lhumerus -24.5078 8.47527 83.8845
lradius 21.5096
lwrist 4.53139
lhand -18.5226 15.95
lfingers 7.12502
lthumb 7.76598 45.7874
rfemur -8.67602 -3.09708 19.9649
rtibia 61.4386
rfoot 1.03972 -11.4434
rtoes 23.723
lfemur -12.8873 7.01828 -24.5924
ltibia 22.4954
lfoot -10.3303 6.99239
ltoes 3.19466
2191
root 0.569003 17.0182 -5.3975 2506.71 87.4971 -1094.82
lowerback -2.00112 0.535366 -0.676878
upperback 5.49927 0.902114 -0.872226
thorax 6.84651 0.476055 -0.454393
lowerneck -8.95999 0.541057 1.8577
upperneck 22.7303 0.547808 1.47444
head 8.54372 0.736437 0.261583
rclavicle 3.67752e-015 -1.63003e-014
rhumerus -27.5917 -8.53535 -84.8461
rradius 18.8809
rwrist 5.91689
rhand -21.7783 6.47893
rfingers 7.12502
rthumb 4.62286 -23.4506
lclavicle 3.67752e-015 -1.63003e-014
lhumerus -24.0282 7.943 84.0296
lradius 21.7718
lwrist 4.73567
lhand -18.5976 15.8853
lfingers 7.12502
lthumb 7.6936 45.7253
rfemur -9.41748 -3.05317 19.8564
rtibia 62.3814
rfoot 0.543093 -11.2103
rtoes 23.1251
lfemur -12.46 7.04979 -24.6807
ltibia 22.3873
lfoot -10.5714 6.99695
ltoes 3.15412
2192
root 0.64241 17.0152 -5.413 2507.9 87.462 -1093.56
lowerback -1.97252 0.495694 -0.769751
upperback 5.5285 0.857793 -0.909031
thorax 6.8604 0.450909 -0.444414
lowerneck -8.93447 0.467448 1.77964
upperneck 22.8004 0.484755 1.37322
head 8.56231 0.691597 0.234907
rclavicle 3.8763e-015 -7.15625e-015
rhumerus -27.7632 -8.43076 -84.832
rradius 19.0873
rwrist 5.62004
rhand -21.7208 6.40755
rfingers 7.12502
rthumb 4.67839 -23.5208
lclavicle 3.8763e-015 -7.15625e-015
lhumerus -23.5225 7.43249 84.1623
lradius 22.0031
lwrist 4.9023
lhand -18.6657 15.8107
lfingers 7.12502
lthumb 7.62788 45.6532
rfemur -10.1487 -2.9883 19.7695
rtibia 63.2108
rfoot -0.174208 -10.7932
rtoes 22.5134
lfemur -12.0497 7.0822 -24.7619
ltibia 22.3015
lfoot -10.809 6.99698
ltoes 3.09551
